# xmcd
#
# Track frame offsets:
#	150
#	20659
#	38342
#	57157
#	76453
#	98968
#	111432
#	128408
#	145137
#	166395
#	184302
#
# Disc length: 2714 seconds
#
# Revision: 1
# Processed by: cddbd v1.5.2PL0 Copyright (c) Steve Scherf et al.
# Submitted via: audiograbber 1.83.01
#
DISCID=8d0a980b
DTITLE=Elizabeth Cook - Exodus of Venus
DYEAR=2016
DGENRE=Country
TTITLE0=Exodus of Venus
TTITLE1=Dyin'
TTITLE2=Evacuation
TTITLE3=Dharma Gate
TTITLE4=Slow Pain
TTITLE5=Straightjacket Love
TTITLE6=Broke Down in London
TTITLE7=Methadone Blues
TTITLE8=Cutting Diamonds
TTITLE9=Orange Blossom Trail
TTITLE10=Ta'bitha Tudor's Mama
EXTD=
EXTT0=
EXTT1=
EXTT2=
EXTT3=
EXTT4=
EXTT5=
EXTT6=
EXTT7=
EXTT8=
EXTT9=
EXTT10=
PLAYORDER=
